# Blender v2.77 (sub 0) OBJ File: 'cutCube.blend'
# www.blender.org
mtllib cutCube.mtl
o Cube
v 1.000000 -1.000000 -1.000000
v 1.000000 -1.000000 1.000000
v -1.000000 -1.000000 1.000000
v -1.000000 -1.000000 -1.000000
v 1.000000 1.000000 -0.999999
v -1.000000 1.000000 1.000000
v -1.000000 1.000000 -1.000000
v 1.000000 1.000000 0.000001
v 1.000000 0.000000 1.000000
v -0.000001 1.000000 1.000000
v -0.000000 1.000000 0.000000
v 1.000000 0.000000 0.000000
v -0.000000 0.000000 1.000000
v -0.000000 0.000000 0.000000
vt 0.0000 -1.0000
vt -1.0000 0.0000
vt 0.0000 0.0000
vt 0.5000 -0.5000
vt 1.0000 -1.0000
vt 0.5000 0.5000
vt 1.0000 0.0000
vt 1.0000 0.5000
vt 0.0000 0.0000
vt 1.0000 1.0000
vt 1.0000 0.0000
vt 0.0000 -1.0000
vt -1.0000 0.0000
vt 0.0000 0.0000
vt 0.5000 0.5000
vt -0.0000 1.0000
vt 0.0000 0.5000
vt 1.0000 1.5000
vt 0.5000 1.0000
vt 1.0000 1.0000
vt 0.5000 -0.5000
vt 1.0000 0.0000
vt 0.5000 0.0000
vt 0.5000 1.5000
vt 1.0000 2.0000
vt 0.0000 2.0000
vt -1.0000 -1.0000
vt 1.0000 0.0000
vt 0.5000 0.0000
vt -0.0000 -0.5000
vt 0.5000 1.0000
vt -0.0000 1.0000
vt -1.0000 -1.0000
vt 0.5000 1.0000
vt 0.5000 1.5000
vt 1.0000 -0.5000
vt 1.0000 1.5000
vn 0.0000 -1.0000 0.0000
vn 1.0000 0.0000 0.0000
vn -0.0000 -0.0000 1.0000
vn -1.0000 -0.0000 -0.0000
vn 0.0000 0.0000 -1.0000
vn 0.0000 1.0000 0.0000
usemtl Material
s off
f 2/1/1 4/2/1 1/3/1
f 12/4/2 2/1/2 1/5/2
f 13/6/3 2/7/3 9/8/3
f 3/9/4 7/10/4 4/11/4
f 1/12/5 7/13/5 5/14/5
f 14/15/2 10/16/2 13/17/2
f 12/18/6 13/19/6 9/20/6
f 14/21/3 8/22/3 11/23/3
f 11/24/6 5/25/6 7/26/6
f 2/1/1 3/27/1 4/2/1
f 5/28/2 8/29/2 12/4/2
f 12/4/2 9/30/2 2/1/2
f 1/5/2 5/28/2 12/4/2
f 13/6/3 10/31/3 6/32/3
f 3/9/3 2/7/3 13/6/3
f 13/6/3 6/32/3 3/9/3
f 3/9/4 6/32/4 7/10/4
f 1/12/5 4/33/5 7/13/5
f 14/15/2 11/34/2 10/16/2
f 12/18/6 14/35/6 13/19/6
f 14/21/3 12/36/3 8/22/3
f 6/32/6 10/31/6 11/24/6
f 11/24/6 8/37/6 5/25/6
f 7/26/6 6/32/6 11/24/6
