# Blender v2.77 (sub 0) OBJ File: 'pedistal.blend'
# www.blender.org
v 1.000000 -1.000000 -1.000000
v 1.000000 -1.000000 1.000000
v -1.000000 -1.000000 1.000000
v -1.000000 -1.000000 -1.000000
v 1.000000 0.000000 -0.999999
v 0.999999 0.000000 1.000001
v -1.000000 0.000000 1.000000
v -1.000000 0.000000 -1.000000
v 0.750000 -0.250000 -0.750000
v 0.749999 -0.250000 0.750001
v -0.750000 -0.250000 0.750000
v -0.750000 -0.250000 -0.750000
vt 1.0000 0.0000
vt 0.0000 1.0000
vt 0.0000 0.0000
vt 1.0000 0.0000
vt 0.0000 1.0000
vt 0.0000 0.0000
vt 1.0000 0.0000
vt 0.0000 1.0000
vt 0.0000 1.0000
vt 0.0000 0.0000
vt 1.0000 0.0000
vt 0.0000 0.0000
vt 1.0000 0.0000
vt 0.0000 1.0000
vt 0.0000 0.0000
vt 0.0001 0.9999
vt 0.9999 0.0001
vt 0.9999 0.9999
vt 0.0000 1.0000
vt 0.0000 0.0000
vt 0.0000 1.0000
vt 0.0000 0.0000
vt 1.0000 0.0000
vt 0.0000 1.0000
vt 1.0000 1.0000
vt 1.0000 1.0000
vt 1.0000 1.0000
vt 1.0000 1.0000
vt 1.0000 1.0000
vt 1.0000 1.0000
vt 0.0001 0.0001
vt 1.0000 1.0000
vt 1.0000 1.0000
vt 1.0000 1.0000
vn 0.0000 -1.0000 0.0000
vn 0.0000 0.7071 -0.7071
vn 1.0000 -0.0000 0.0000
vn 0.0000 -0.0000 1.0000
vn -1.0000 -0.0000 -0.0000
vn 0.0000 0.0000 -1.0000
vn 0.0000 1.0000 0.0000
vn -0.7071 0.7071 -0.0000
vn 0.7071 0.7071 0.0000
vn -0.0000 0.7071 0.7071
s off
f 2/1/1 4/2/1 1/3/1
f 6/4/2 11/5/2 7/6/2
f 5/7/3 2/8/3 1/3/3
f 6/4/4 3/9/4 2/10/4
f 7/11/5 4/2/5 3/12/5
f 1/13/6 8/14/6 5/15/6
f 12/16/7 10/17/7 9/18/7
f 5/7/8 10/19/8 6/20/8
f 7/11/9 12/21/9 8/22/9
f 8/23/10 9/24/10 5/15/10
f 2/1/1 3/25/1 4/2/1
f 6/4/2 10/26/2 11/5/2
f 5/7/3 6/27/3 2/8/3
f 6/4/4 7/28/4 3/9/4
f 7/11/5 8/29/5 4/2/5
f 1/13/6 4/30/6 8/14/6
f 12/16/7 11/31/7 10/17/7
f 5/7/8 9/32/8 10/19/8
f 7/11/9 11/33/9 12/21/9
f 8/23/10 12/34/10 9/24/10
